<mxfile host="app.diagrams.net" modified="2023-11-11T21:22:57.067Z" agent="Mozilla/5.0 (Macintosh; Intel Mac OS X 10_15_7) AppleWebKit/537.36 (KHTML, like Gecko) Chrome/119.0.0.0 Safari/537.36" etag="d39K809oz0WzMY_fPJyS" version="22.1.0" type="device">
  <diagram name="Страница — 1" id="-HxmSBmulutoMmKue4LQ">
    <mxGraphModel dx="1026" dy="572" grid="1" gridSize="10" guides="1" tooltips="1" connect="1" arrows="1" fold="1" page="1" pageScale="1" pageWidth="827" pageHeight="1169" math="0" shadow="0">
      <root>
        <mxCell id="0" />
        <mxCell id="1" parent="0" />
        <mxCell id="ODKjQ-sCagSUDkUFFcM--5" style="rounded=0;orthogonalLoop=1;jettySize=auto;html=1;" parent="1" source="ODKjQ-sCagSUDkUFFcM--1" target="ODKjQ-sCagSUDkUFFcM--2" edge="1">
          <mxGeometry relative="1" as="geometry" />
        </mxCell>
        <mxCell id="ODKjQ-sCagSUDkUFFcM--6" style="edgeStyle=orthogonalEdgeStyle;rounded=0;orthogonalLoop=1;jettySize=auto;html=1;" parent="1" source="ODKjQ-sCagSUDkUFFcM--1" target="ODKjQ-sCagSUDkUFFcM--3" edge="1">
          <mxGeometry relative="1" as="geometry" />
        </mxCell>
        <mxCell id="ODKjQ-sCagSUDkUFFcM--7" style="rounded=0;orthogonalLoop=1;jettySize=auto;html=1;" parent="1" source="ODKjQ-sCagSUDkUFFcM--1" target="ODKjQ-sCagSUDkUFFcM--4" edge="1">
          <mxGeometry relative="1" as="geometry" />
        </mxCell>
        <mxCell id="ODKjQ-sCagSUDkUFFcM--1" value="Керівник" style="ellipse;whiteSpace=wrap;html=1;" parent="1" vertex="1">
          <mxGeometry x="360" y="80" width="70" height="40" as="geometry" />
        </mxCell>
        <mxCell id="ODKjQ-sCagSUDkUFFcM--11" style="rounded=0;orthogonalLoop=1;jettySize=auto;html=1;" parent="1" source="ODKjQ-sCagSUDkUFFcM--2" target="ODKjQ-sCagSUDkUFFcM--8" edge="1">
          <mxGeometry relative="1" as="geometry" />
        </mxCell>
        <mxCell id="ODKjQ-sCagSUDkUFFcM--12" style="rounded=0;orthogonalLoop=1;jettySize=auto;html=1;" parent="1" source="ODKjQ-sCagSUDkUFFcM--2" target="ODKjQ-sCagSUDkUFFcM--9" edge="1">
          <mxGeometry relative="1" as="geometry" />
        </mxCell>
        <mxCell id="ODKjQ-sCagSUDkUFFcM--13" style="rounded=0;orthogonalLoop=1;jettySize=auto;html=1;" parent="1" source="ODKjQ-sCagSUDkUFFcM--2" target="ODKjQ-sCagSUDkUFFcM--10" edge="1">
          <mxGeometry relative="1" as="geometry" />
        </mxCell>
        <mxCell id="ODKjQ-sCagSUDkUFFcM--2" value="1" style="ellipse;whiteSpace=wrap;html=1;" parent="1" vertex="1">
          <mxGeometry x="230" y="160" width="40" height="40" as="geometry" />
        </mxCell>
        <mxCell id="ODKjQ-sCagSUDkUFFcM--17" style="rounded=0;orthogonalLoop=1;jettySize=auto;html=1;entryX=1;entryY=0;entryDx=0;entryDy=0;" parent="1" source="ODKjQ-sCagSUDkUFFcM--3" target="ODKjQ-sCagSUDkUFFcM--14" edge="1">
          <mxGeometry relative="1" as="geometry" />
        </mxCell>
        <mxCell id="ODKjQ-sCagSUDkUFFcM--18" style="rounded=0;orthogonalLoop=1;jettySize=auto;html=1;" parent="1" source="ODKjQ-sCagSUDkUFFcM--3" target="ODKjQ-sCagSUDkUFFcM--15" edge="1">
          <mxGeometry relative="1" as="geometry" />
        </mxCell>
        <mxCell id="ODKjQ-sCagSUDkUFFcM--19" style="rounded=0;orthogonalLoop=1;jettySize=auto;html=1;" parent="1" source="ODKjQ-sCagSUDkUFFcM--3" target="ODKjQ-sCagSUDkUFFcM--16" edge="1">
          <mxGeometry relative="1" as="geometry" />
        </mxCell>
        <mxCell id="ODKjQ-sCagSUDkUFFcM--3" value="2" style="ellipse;whiteSpace=wrap;html=1;" parent="1" vertex="1">
          <mxGeometry x="375" y="160" width="40" height="40" as="geometry" />
        </mxCell>
        <mxCell id="ODKjQ-sCagSUDkUFFcM--22" style="rounded=0;orthogonalLoop=1;jettySize=auto;html=1;" parent="1" source="ODKjQ-sCagSUDkUFFcM--4" target="ODKjQ-sCagSUDkUFFcM--21" edge="1">
          <mxGeometry relative="1" as="geometry" />
        </mxCell>
        <mxCell id="ODKjQ-sCagSUDkUFFcM--23" style="rounded=0;orthogonalLoop=1;jettySize=auto;html=1;" parent="1" source="ODKjQ-sCagSUDkUFFcM--4" target="ODKjQ-sCagSUDkUFFcM--20" edge="1">
          <mxGeometry relative="1" as="geometry" />
        </mxCell>
        <mxCell id="ODKjQ-sCagSUDkUFFcM--25" style="rounded=0;orthogonalLoop=1;jettySize=auto;html=1;" parent="1" source="ODKjQ-sCagSUDkUFFcM--4" target="ODKjQ-sCagSUDkUFFcM--24" edge="1">
          <mxGeometry relative="1" as="geometry" />
        </mxCell>
        <mxCell id="ODKjQ-sCagSUDkUFFcM--4" value="3" style="ellipse;whiteSpace=wrap;html=1;" parent="1" vertex="1">
          <mxGeometry x="520" y="160" width="40" height="40" as="geometry" />
        </mxCell>
        <mxCell id="ODKjQ-sCagSUDkUFFcM--8" value="Відділ виробництва" style="ellipse;whiteSpace=wrap;html=1;" parent="1" vertex="1">
          <mxGeometry x="60" y="170" width="100" height="40" as="geometry" />
        </mxCell>
        <mxCell id="ODKjQ-sCagSUDkUFFcM--9" value="Відділ якості" style="ellipse;whiteSpace=wrap;html=1;" parent="1" vertex="1">
          <mxGeometry x="100" y="220" width="60" height="40" as="geometry" />
        </mxCell>
        <mxCell id="ODKjQ-sCagSUDkUFFcM--10" value="Відділ безпеки" style="ellipse;whiteSpace=wrap;html=1;" parent="1" vertex="1">
          <mxGeometry x="170" y="250" width="60" height="40" as="geometry" />
        </mxCell>
        <mxCell id="ODKjQ-sCagSUDkUFFcM--14" value="Відділ маркетингу" style="ellipse;whiteSpace=wrap;html=1;" parent="1" vertex="1">
          <mxGeometry x="280" y="205" width="80" height="60" as="geometry" />
        </mxCell>
        <mxCell id="ODKjQ-sCagSUDkUFFcM--15" value="Відділ продажів" style="ellipse;whiteSpace=wrap;html=1;" parent="1" vertex="1">
          <mxGeometry x="355" y="250" width="60" height="50" as="geometry" />
        </mxCell>
        <mxCell id="ODKjQ-sCagSUDkUFFcM--16" value="&amp;nbsp;Відділ реклами" style="ellipse;whiteSpace=wrap;html=1;" parent="1" vertex="1">
          <mxGeometry x="414" y="215" width="60" height="50" as="geometry" />
        </mxCell>
        <mxCell id="ODKjQ-sCagSUDkUFFcM--20" value="Відділ фінансів" style="ellipse;whiteSpace=wrap;html=1;" parent="1" vertex="1">
          <mxGeometry x="590" y="140" width="60" height="50" as="geometry" />
        </mxCell>
        <mxCell id="ODKjQ-sCagSUDkUFFcM--21" value="Відділ бухгалтерії" style="ellipse;whiteSpace=wrap;html=1;" parent="1" vertex="1">
          <mxGeometry x="570" y="205" width="70" height="60" as="geometry" />
        </mxCell>
        <mxCell id="ODKjQ-sCagSUDkUFFcM--24" value="&amp;nbsp;Відділ інвестицій" style="ellipse;whiteSpace=wrap;html=1;" parent="1" vertex="1">
          <mxGeometry x="500" y="235" width="70" height="65" as="geometry" />
        </mxCell>
      </root>
    </mxGraphModel>
  </diagram>
</mxfile>
